%TF.GenerationSoftware,KiCad,Pcbnew,8.0.7*%
%TF.CreationDate,2024-12-29T01:14:19+01:00*%
%TF.ProjectId,DrinkoMat,4472696e-6b6f-44d6-9174-2e6b69636164,rev?*%
%TF.SameCoordinates,Original*%
%TF.FileFunction,Soldermask,Top*%
%TF.FilePolarity,Negative*%
%FSLAX46Y46*%
G04 Gerber Fmt 4.6, Leading zero omitted, Abs format (unit mm)*
G04 Created by KiCad (PCBNEW 8.0.7) date 2024-12-29 01:14:19*
%MOMM*%
%LPD*%
G01*
G04 APERTURE LIST*
G04 Aperture macros list*
%AMRoundRect*
0 Rectangle with rounded corners*
0 $1 Rounding radius*
0 $2 $3 $4 $5 $6 $7 $8 $9 X,Y pos of 4 corners*
0 Add a 4 corners polygon primitive as box body*
4,1,4,$2,$3,$4,$5,$6,$7,$8,$9,$2,$3,0*
0 Add four circle primitives for the rounded corners*
1,1,$1+$1,$2,$3*
1,1,$1+$1,$4,$5*
1,1,$1+$1,$6,$7*
1,1,$1+$1,$8,$9*
0 Add four rect primitives between the rounded corners*
20,1,$1+$1,$2,$3,$4,$5,0*
20,1,$1+$1,$4,$5,$6,$7,0*
20,1,$1+$1,$6,$7,$8,$9,0*
20,1,$1+$1,$8,$9,$2,$3,0*%
G04 Aperture macros list end*
%ADD10RoundRect,0.250000X0.750000X-0.600000X0.750000X0.600000X-0.750000X0.600000X-0.750000X-0.600000X0*%
%ADD11O,2.000000X1.700000*%
%ADD12RoundRect,0.250000X-0.750000X0.600000X-0.750000X-0.600000X0.750000X-0.600000X0.750000X0.600000X0*%
%ADD13RoundRect,0.250000X-0.600000X-0.725000X0.600000X-0.725000X0.600000X0.725000X-0.600000X0.725000X0*%
%ADD14O,1.700000X1.950000*%
%ADD15RoundRect,0.250000X-0.725000X0.600000X-0.725000X-0.600000X0.725000X-0.600000X0.725000X0.600000X0*%
%ADD16O,1.950000X1.700000*%
%ADD17RoundRect,0.250000X0.725000X-0.600000X0.725000X0.600000X-0.725000X0.600000X-0.725000X-0.600000X0*%
%ADD18R,2.000000X1.200000*%
%ADD19O,2.000000X1.200000*%
G04 APERTURE END LIST*
D10*
%TO.C,REF\u002A\u002A*%
X28500000Y-98000000D03*
D11*
X28500000Y-95500000D03*
%TD*%
D10*
%TO.C,REF\u002A\u002A*%
X102975000Y-94500000D03*
D11*
X102975000Y-92000000D03*
%TD*%
D12*
%TO.C,REF\u002A\u002A*%
X30000000Y-37500000D03*
D11*
X30000000Y-40000000D03*
%TD*%
D10*
%TO.C,REF\u002A\u002A*%
X80500000Y-94500000D03*
D11*
X80500000Y-92000000D03*
%TD*%
D10*
%TO.C,REF\u002A\u002A*%
X118000000Y-94500000D03*
D11*
X118000000Y-92000000D03*
%TD*%
D10*
%TO.C,REF\u002A\u002A*%
X95500000Y-94500000D03*
D11*
X95500000Y-92000000D03*
%TD*%
D10*
%TO.C,REF\u002A\u002A*%
X88000000Y-94500000D03*
D11*
X88000000Y-92000000D03*
%TD*%
D10*
%TO.C,REF\u002A\u002A*%
X97975000Y-60250000D03*
D11*
X97975000Y-57750000D03*
%TD*%
D13*
%TO.C,REF\u002A\u002A*%
X100500000Y-81500000D03*
D14*
X103000000Y-81500000D03*
X105500000Y-81500000D03*
X108000000Y-81500000D03*
X110500000Y-81500000D03*
X113000000Y-81500000D03*
X115500000Y-81500000D03*
X118000000Y-81500000D03*
%TD*%
D15*
%TO.C,A1*%
X82400000Y-24460000D03*
D16*
X82400000Y-26960000D03*
X82400000Y-29460000D03*
X82400000Y-31960000D03*
X82400000Y-34460000D03*
%TD*%
D17*
%TO.C,REF\u002A\u002A*%
X44475000Y-99250000D03*
D16*
X44475000Y-96750000D03*
X44475000Y-94250000D03*
X44475000Y-91750000D03*
X44475000Y-89250000D03*
X44475000Y-86750000D03*
X44475000Y-84250000D03*
X44475000Y-81750000D03*
%TD*%
D15*
%TO.C,A1*%
X82425000Y-41960000D03*
D16*
X82425000Y-44460000D03*
X82425000Y-46960000D03*
X82425000Y-49460000D03*
X82425000Y-51960000D03*
%TD*%
D10*
%TO.C,REF\u002A\u002A*%
X65475000Y-83750000D03*
D11*
X65475000Y-81250000D03*
%TD*%
D10*
%TO.C,REF\u002A\u002A*%
X73000000Y-94500000D03*
D11*
X73000000Y-92000000D03*
%TD*%
D10*
%TO.C,REF\u002A\u002A*%
X57000000Y-84000000D03*
D11*
X57000000Y-81500000D03*
%TD*%
D10*
%TO.C,REF\u002A\u002A*%
X97975000Y-48250000D03*
D11*
X97975000Y-45750000D03*
%TD*%
D10*
%TO.C,REF\u002A\u002A*%
X65500000Y-94500000D03*
D11*
X65500000Y-92000000D03*
%TD*%
D10*
%TO.C,REF\u002A\u002A*%
X28500000Y-83000000D03*
D11*
X28500000Y-80500000D03*
%TD*%
D15*
%TO.C,REF\u002A\u002A*%
X82400000Y-58460000D03*
D16*
X82400000Y-60960000D03*
X82400000Y-63460000D03*
X82400000Y-65960000D03*
%TD*%
D18*
%TO.C,REF\u002A\u002A*%
X43500000Y-22260000D03*
D19*
X43500000Y-24800000D03*
X43500000Y-27340000D03*
X43500000Y-29880000D03*
X43500000Y-32420000D03*
X43500000Y-34960000D03*
X43500000Y-37500000D03*
X43500000Y-40040000D03*
X43500000Y-42580000D03*
X43500000Y-45120000D03*
X43500000Y-47660000D03*
X43500000Y-50200000D03*
X43500000Y-52740000D03*
X43500000Y-55280000D03*
X43500000Y-57820000D03*
X43500000Y-60360000D03*
X43500000Y-62900000D03*
X43500000Y-65440000D03*
X43500000Y-67980000D03*
X68896320Y-67977280D03*
X68896320Y-65437280D03*
X68900000Y-62900000D03*
X68900000Y-60360000D03*
X68900000Y-57820000D03*
X68900000Y-55280000D03*
X68900000Y-52740000D03*
X68900000Y-50200000D03*
X68900000Y-47660000D03*
X68900000Y-45120000D03*
X68900000Y-42580000D03*
X68900000Y-40040000D03*
X68900000Y-37500000D03*
X68900000Y-34960000D03*
X68900000Y-32420000D03*
X68900000Y-29880000D03*
X68900000Y-27340000D03*
X68900000Y-24800000D03*
X68900000Y-22260000D03*
%TD*%
D15*
%TO.C,REF\u002A\u002A*%
X29400000Y-58460000D03*
D16*
X29400000Y-60960000D03*
X29400000Y-63460000D03*
X29400000Y-65960000D03*
%TD*%
D10*
%TO.C,REF\u002A\u002A*%
X110475000Y-94500000D03*
D11*
X110475000Y-92000000D03*
%TD*%
M02*
