M48
; DRILL file {KiCad 8.0.7} date 2024-12-29T01:15:02+0100
; FORMAT={-:-/ absolute / inch / decimal}
; #@! TF.CreationDate,2024-12-29T01:15:02+01:00
; #@! TF.GenerationSoftware,Kicad,Pcbnew,8.0.7
; #@! TF.FileFunction,Plated,1,2,PTH
FMAT,2
INCH
; #@! TA.AperFunction,Plated,PTH,ComponentDrill
T1C0.0315
; #@! TA.AperFunction,Plated,PTH,ComponentDrill
T2C0.0374
; #@! TA.AperFunction,Plated,PTH,ComponentDrill
T3C0.0394
%
G90
G05
T1
X1.7126Y-0.8764
X1.7126Y-0.9764
X1.7126Y-1.0764
X1.7126Y-1.1764
X1.7126Y-1.2764
X1.7126Y-1.3764
X1.7126Y-1.4764
X1.7126Y-1.5764
X1.7126Y-1.6764
X1.7126Y-1.7764
X1.7126Y-1.8764
X1.7126Y-1.9764
X1.7126Y-2.0764
X1.7126Y-2.1764
X1.7126Y-2.2764
X1.7126Y-2.3764
X1.7126Y-2.4764
X1.7126Y-2.5764
X1.7126Y-2.6764
X2.7125Y-2.5763
X2.7125Y-2.6763
X2.7126Y-0.8764
X2.7126Y-0.9764
X2.7126Y-1.0764
X2.7126Y-1.1764
X2.7126Y-1.2764
X2.7126Y-1.3764
X2.7126Y-1.4764
X2.7126Y-1.5764
X2.7126Y-1.6764
X2.7126Y-1.7764
X2.7126Y-1.8764
X2.7126Y-1.9764
X2.7126Y-2.0764
X2.7126Y-2.1764
X2.7126Y-2.2764
X2.7126Y-2.3764
X2.7126Y-2.4764
T2
X1.1575Y-2.3016
X1.1575Y-2.4
X1.1575Y-2.4984
X1.1575Y-2.5969
X1.751Y-3.2185
X1.751Y-3.3169
X1.751Y-3.4154
X1.751Y-3.5138
X1.751Y-3.6122
X1.751Y-3.7106
X1.751Y-3.8091
X1.751Y-3.9075
X3.2441Y-0.963
X3.2441Y-1.0614
X3.2441Y-1.1598
X3.2441Y-1.2583
X3.2441Y-1.3567
X3.2441Y-2.3016
X3.2441Y-2.4
X3.2441Y-2.4984
X3.2441Y-2.5969
X3.2451Y-1.652
X3.2451Y-1.7504
X3.2451Y-1.8488
X3.2451Y-1.9472
X3.2451Y-2.0457
X3.9567Y-3.2087
X4.0551Y-3.2087
X4.1535Y-3.2087
X4.252Y-3.2087
X4.3504Y-3.2087
X4.4488Y-3.2087
X4.5472Y-3.2087
X4.6457Y-3.2087
T3
X1.122Y-3.1693
X1.122Y-3.2677
X1.122Y-3.7598
X1.122Y-3.8583
X1.1811Y-1.4764
X1.1811Y-1.5748
X2.2441Y-3.2087
X2.2441Y-3.3071
X2.5778Y-3.1988
X2.5778Y-3.2972
X2.5787Y-3.622
X2.5787Y-3.7205
X2.874Y-3.622
X2.874Y-3.7205
X3.1693Y-3.622
X3.1693Y-3.7205
X3.4646Y-3.622
X3.4646Y-3.7205
X3.7598Y-3.622
X3.7598Y-3.7205
X3.8573Y-1.8012
X3.8573Y-1.8996
X3.8573Y-2.2736
X3.8573Y-2.372
X4.0541Y-3.622
X4.0541Y-3.7205
X4.3494Y-3.622
X4.3494Y-3.7205
X4.6457Y-3.622
X4.6457Y-3.7205
M30
